<svg width="30" height="30" viewBox="0 0 30 30" fill="none" xmlns="http://www.w3.org/2000/svg">
<path d="M26.6619 0H3.33273C1.49973 0 0 1.49973 0 3.33273V26.6619C0 28.4965 1.49973 29.9946 3.33273 29.9946H26.6619C28.4949 29.9946 29.9946 28.4965 29.9946 26.6619V3.33273C29.9946 1.49973 28.4949 0 26.6619 0ZM14.9706 24.2006C17.4183 24.2002 19.7656 23.2276 21.4962 21.4967C23.2268 19.7657 24.199 17.4183 24.199 14.9706C24.199 14.4074 24.1273 13.8642 24.0273 13.3309H26.6619V25.3554C26.6619 25.5069 26.632 25.6568 26.5739 25.7966C26.5158 25.9364 26.4306 26.0634 26.3233 26.1702C26.216 26.2771 26.0887 26.3617 25.9486 26.4191C25.8085 26.4766 25.6585 26.5059 25.5071 26.5052H4.48753C4.33611 26.5059 4.18606 26.4766 4.04598 26.4191C3.90591 26.3617 3.77856 26.2771 3.67127 26.1702C3.56397 26.0634 3.47883 25.9364 3.42073 25.7966C3.36264 25.6568 3.33273 25.5069 3.33273 25.3554V13.3309H5.91394C5.81229 13.8642 5.74063 14.4074 5.74063 14.9706C5.74108 17.4185 6.71366 19.7659 8.44453 21.4968C10.1754 23.2276 12.5228 24.2002 14.9706 24.2006ZM9.20335 14.9706C9.20335 14.2133 9.35252 13.4633 9.64235 12.7636C9.93219 12.0639 10.357 11.4281 10.8925 10.8925C11.4281 10.357 12.0639 9.93219 12.7636 9.64235C13.4633 9.35252 14.2133 9.20335 14.9706 9.20335C15.728 9.20335 16.478 9.35252 17.1777 9.64235C17.8774 9.93219 18.5132 10.357 19.0487 10.8925C19.5843 11.4281 20.0091 12.0639 20.2989 12.7636C20.5888 13.4633 20.7379 14.2133 20.7379 14.9706C20.7379 16.5002 20.1303 17.9672 19.0487 19.0487C17.9672 20.1303 16.5002 20.7379 14.9706 20.7379C13.4411 20.7379 11.9741 20.1303 10.8925 19.0487C9.81097 17.9672 9.20335 16.5002 9.20335 14.9706ZM25.5071 8.33183H22.8159C22.5103 8.33096 22.2175 8.20918 22.0015 7.99312C21.7854 7.77706 21.6637 7.48427 21.6628 7.17871V4.48419C21.6628 3.84764 22.1793 3.33273 22.8142 3.33273H25.5054C26.1453 3.33273 26.6619 3.84764 26.6619 4.48419V7.17704C26.6619 7.81193 26.1453 8.33183 25.5071 8.33183Z" fill="#2A2A2A"/>
</svg>
