<svg width="29" height="29" viewBox="0 0 29 29" fill="none" xmlns="http://www.w3.org/2000/svg">
<path d="M13.8136 10.4353C11.6731 6.6306 9.38296 3.52728 9.21588 3.29875C7.48734 4.1164 5.97105 5.32229 4.7853 6.82238C3.59955 8.32246 2.77639 10.0762 2.38002 11.9467C2.70471 11.953 7.86825 12.0145 13.8136 10.4353ZM15.3551 14.5961C15.5167 14.5444 15.6791 14.495 15.8421 14.448C15.5273 13.7368 15.1925 13.0346 14.8381 12.3423C8.4609 14.2526 2.34219 14.1139 2.12626 14.1076C2.12153 14.2399 2.11522 14.3692 2.11522 14.5016C2.11522 17.6837 3.31784 20.5868 5.29279 22.7792L5.28491 22.7697C5.28491 22.7697 8.67368 16.7585 15.3551 14.5961ZM6.88788 24.2623V24.256C6.79646 24.1851 6.69873 24.1204 6.60732 24.0432C6.77439 24.1772 6.88788 24.2623 6.88788 24.2623ZM11.5329 2.47761C11.525 2.47982 11.5171 2.48192 11.5092 2.48391C11.5187 2.48076 11.5313 2.48076 11.5313 2.48076L11.5329 2.47761ZM22.678 5.20739C20.4202 3.21366 17.5113 2.11439 14.4992 2.11668C13.492 2.11668 12.5164 2.23962 11.5801 2.465C11.7693 2.71717 14.0941 5.80473 16.2109 9.68978C20.8796 7.9419 22.6433 5.25783 22.678 5.20739ZM14.4992 29C10.6539 28.9996 6.96622 27.4719 4.24718 24.753C1.52814 22.0342 0.000418288 18.3467 3.42715e-07 14.5016C-0.000413687 12.5974 0.374314 10.7117 1.10278 8.9523C1.83125 7.19291 2.89919 5.59424 4.24561 4.2476C5.59202 2.90097 7.19055 1.83274 8.94988 1.10393C10.7092 0.375117 12.5949 -4.50057e-08 14.4992 0C16.4036 -1.12494e-08 18.2894 0.375106 20.0488 1.1039C21.8082 1.83269 23.4068 2.90089 24.7534 4.24751C26.0999 5.59413 27.168 7.19278 27.8966 8.95218C28.6253 10.7116 29.0002 12.5973 29 14.5016C28.9996 18.3469 27.4716 22.0347 24.7523 24.7536C22.0329 27.4725 18.3448 29 14.4992 29ZM16.605 16.5268C9.33725 19.0596 6.93674 24.152 6.88788 24.256C9.05896 25.9584 11.7386 26.883 14.4976 26.8817C16.1585 26.8841 17.8027 26.5512 19.3318 25.903C19.1489 24.8171 18.4286 21.0234 16.6854 16.4985C16.6587 16.5084 16.6319 16.5179 16.605 16.5268ZM17.1629 11.537C17.453 12.1248 17.7272 12.7253 17.9873 13.3321C18.0803 13.5449 18.167 13.7608 18.2552 13.972C22.5314 13.433 26.7429 14.3471 26.8816 14.3755C26.856 11.5487 25.8619 8.81618 24.065 6.63375C24.0366 6.67 22.0491 9.53848 17.1629 11.537ZM19.0086 15.9264C20.6337 20.3961 21.2925 24.0306 21.4186 24.7698C22.8246 23.8223 24.0212 22.5962 24.934 21.1674C25.8469 19.7387 26.4567 18.1378 26.7256 16.4638C26.4797 16.385 23.0121 15.2865 19.0086 15.9264Z" fill="#2A2A2A"/>
</svg>
