<svg width="1000" height="1000" viewBox="0 0 1000 1000" fill="none" xmlns="http://www.w3.org/2000/svg">
<g clip-path="url(#clip0)">
<path fill-rule="evenodd" clip-rule="evenodd" d="M769.87 221.729L681.159 157.297L487.862 423.433L221.726 230.136L157.294 318.847L423.43 512.144L230.137 778.275L318.848 842.707L512.141 576.576L778.272 769.87L842.703 681.159L576.573 487.865L769.87 221.729Z" fill="#FCCF02"/>
<mask id="path-2-outside-1" maskUnits="userSpaceOnUse" x="14.5253" y="-41.585" width="949.803" height="949.803" fill="black">
<rect fill="white" x="14.5253" y="-41.585" width="949.803" height="949.803"/>
<path fill-rule="evenodd" clip-rule="evenodd" d="M725.507 189.511L647.885 133.133L478.753 365.998L245.89 196.867L189.512 274.489L422.375 443.62L253.24 676.489L330.862 732.866L499.997 499.998L732.867 669.133L789.245 591.511L556.375 422.376L725.507 189.511Z"/>
</mask>
<path d="M647.885 133.133L650.236 129.897L646.999 127.546L644.649 130.783L647.885 133.133ZM725.507 189.511L728.744 191.862L731.094 188.625L727.858 186.275L725.507 189.511ZM478.753 365.998L476.402 369.234L479.639 371.585L481.989 368.348L478.753 365.998ZM245.89 196.867L248.24 193.63L245.004 191.28L242.653 194.516L245.89 196.867ZM189.512 274.489L186.275 272.138L183.925 275.375L187.161 277.725L189.512 274.489ZM422.375 443.62L425.612 445.971L427.962 442.734L424.726 440.384L422.375 443.62ZM253.24 676.489L250.004 674.138L247.653 677.374L250.89 679.725L253.24 676.489ZM330.862 732.866L328.512 736.103L331.748 738.454L334.099 735.217L330.862 732.866ZM499.997 499.998L502.348 496.761L499.112 494.411L496.761 497.647L499.997 499.998ZM732.867 669.133L730.516 672.37L733.753 674.721L736.103 671.484L732.867 669.133ZM789.245 591.511L792.481 593.862L794.832 590.626L791.596 588.275L789.245 591.511ZM556.375 422.376L553.139 420.025L550.788 423.261L554.025 425.612L556.375 422.376ZM645.534 136.37L723.156 192.748L727.858 186.275L650.236 129.897L645.534 136.37ZM481.989 368.348L651.121 135.484L644.649 130.783L475.517 363.647L481.989 368.348ZM243.539 200.103L476.402 369.234L481.104 362.761L248.24 193.63L243.539 200.103ZM192.748 276.839L249.126 199.217L242.653 194.516L186.275 272.138L192.748 276.839ZM424.726 440.384L191.862 271.252L187.161 277.725L420.025 446.856L424.726 440.384ZM256.477 678.839L425.612 445.971L419.139 441.269L250.004 674.138L256.477 678.839ZM333.213 729.63L255.591 673.252L250.89 679.725L328.512 736.103L333.213 729.63ZM496.761 497.647L327.626 730.516L334.099 735.217L503.234 502.348L496.761 497.647ZM735.218 665.897L502.348 496.761L497.647 503.234L730.516 672.37L735.218 665.897ZM786.008 589.161L729.631 666.783L736.103 671.484L792.481 593.862L786.008 589.161ZM554.025 425.612L786.894 594.748L791.596 588.275L558.726 419.139L554.025 425.612ZM722.271 187.16L553.139 420.025L559.612 424.726L728.744 191.862L722.271 187.16Z" fill="black" mask="url(#path-2-outside-1)"/>
</g>
<defs>
<clipPath id="clip0">
<rect width="1000" height="1000" fill="white"/>
</clipPath>
</defs>
</svg>
