<svg width="1000" height="1000" viewBox="0 0 1000 1000" fill="none" xmlns="http://www.w3.org/2000/svg">
<ellipse cx="468.526" cy="503.527" rx="382.526" ry="382.835" fill="#FCCF02"/>
<path d="M912 493.835C912 704.166 741.631 874.67 531.474 874.67C321.316 874.67 150.947 704.166 150.947 493.835C150.947 283.504 321.316 113 531.474 113C741.631 113 912 283.504 912 493.835Z" stroke="black" stroke-width="4"/>
<mask id="mask0" mask-type="alpha" maskUnits="userSpaceOnUse" x="86" y="124" width="766" height="766">
<ellipse cx="468.526" cy="507.165" rx="382.526" ry="382.835" fill="#FCCF02"/>
</mask>
<g mask="url(#mask0)">
<path d="M-6 442.952L759.053 67.3859" stroke="white" stroke-width="6"/>
<path d="M18.2104 515.642L783.263 140.076" stroke="white" stroke-width="6"/>
<path d="M47.2632 588.332L812.316 212.766" stroke="white" stroke-width="6"/>
<path d="M71.4736 661.022L836.526 285.456" stroke="white" stroke-width="6"/>
<path d="M100.526 733.713L865.579 358.147" stroke="white" stroke-width="6"/>
<path d="M124.737 806.403L889.789 430.837" stroke="white" stroke-width="6"/>
<path d="M148.947 879.093L914 503.527" stroke="white" stroke-width="6"/>
<path d="M168.316 951.783L933.368 576.217" stroke="white" stroke-width="6"/>
</g>
</svg>
